<svg xmlns="http://www.w3.org/2000/svg" viewBox="0 0 360 640" fill="none">
  <defs>
    <linearGradient id="bg" x1="0%" y1="0%" x2="100%" y2="100%">
      <stop offset="0%" stop-color="#1a1035"/>
      <stop offset="50%" stop-color="#12081f"/>
      <stop offset="100%" stop-color="#0a0a12"/>
    </linearGradient>
    <linearGradient id="ig" x1="0%" y1="100%" x2="100%" y2="0%">
      <stop offset="0%" stop-color="#F58529"/>
      <stop offset="50%" stop-color="#DD2A7B"/>
      <stop offset="100%" stop-color="#8134AF"/>
    </linearGradient>
    <linearGradient id="neon" x1="0%" y1="0%" x2="100%" y2="0%">
      <stop offset="0%" stop-color="#7C6CFF"/>
      <stop offset="100%" stop-color="#38BDF8"/>
    </linearGradient>
    <filter id="glow"><feGaussianBlur stdDeviation="4" result="b"/><feMerge><feMergeNode in="b"/><feMergeNode in="SourceGraphic"/></feMerge></filter>
  </defs>
  <rect width="360" height="640" fill="url(#bg)"/>
  <ellipse cx="180" cy="200" rx="140" ry="100" fill="#8134AF" opacity=".12"/>
  <ellipse cx="180" cy="420" rx="160" ry="120" fill="#DD2A7B" opacity=".08"/>

  <!-- schedule badge top -->
  <rect x="24" y="24" width="132" height="36" rx="12" fill="rgba(124,108,255,.18)" stroke="rgba(124,108,255,.4)" stroke-width="1.5"/>
  <circle cx="44" cy="42" r="10" fill="url(#neon)" opacity=".85"/>
  <path d="M44 38v5l3 2" stroke="#fff" stroke-width="1.5" stroke-linecap="round"/>
  <rect x="58" y="34" width="56" height="6" rx="3" fill="rgba(255,255,255,.75)"/>
  <rect x="58" y="44" width="88" height="5" rx="2" fill="rgba(255,255,255,.35)"/>

  <!-- cute robot -->
  <ellipse cx="180" cy="248" rx="52" ry="14" fill="#000" opacity=".25"/>
  <rect x="148" y="168" width="64" height="72" rx="28" fill="#f4f4fa"/>
  <rect x="158" y="178" width="44" height="36" rx="14" fill="#1a1035"/>
  <circle cx="168" cy="192" r="5" fill="#C084FC"/>
  <circle cx="192" cy="192" r="5" fill="#C084FC"/>
  <path d="M166 204 Q180 210 194 204" stroke="#C084FC" stroke-width="2.5" fill="none" stroke-linecap="round"/>
  <line x1="180" y1="168" x2="180" y2="152" stroke="#9b9db5" stroke-width="3"/>
  <circle cx="180" cy="148" r="6" fill="url(#neon)"/>
  <path d="M148 198 Q120 188 108 210" stroke="#e8e8f0" stroke-width="10" stroke-linecap="round" fill="none"/>
  <path d="M212 198 Q240 188 252 210" stroke="#e8e8f0" stroke-width="10" stroke-linecap="round" fill="none"/>
  <circle cx="108" cy="210" r="8" fill="#f4f4fa"/>
  <circle cx="252" cy="210" r="8" fill="#f4f4fa"/>
  <!-- sparkles -->
  <path d="M180 130 L182 124 L184 130 L190 132 L184 134 L182 140 L180 134 L174 132 Z" fill="#FBBF24" filter="url(#glow)"/>
  <path d="M130 160 L131 156 L132 160 L136 161 L132 162 L131 166 L130 162 L126 161 Z" fill="#F472B6" opacity=".9"/>
  <path d="M228 156 L229 152 L230 156 L234 157 L230 158 L229 162 L228 158 L224 157 Z" fill="#38BDF8" opacity=".9"/>

  <!-- marketing post -->
  <g transform="translate(24 290)">
    <rect width="148" height="108" rx="14" fill="rgba(221,42,123,.15)" stroke="url(#ig)" stroke-width="1.5"/>
    <rect x="12" y="12" width="124" height="56" rx="8" fill="url(#ig)" opacity=".75"/>
    <rect x="20" y="22" width="72" height="8" rx="3" fill="rgba(255,255,255,.9)"/>
    <rect x="20" y="36" width="96" height="5" rx="2" fill="rgba(255,255,255,.5)"/>
    <rect x="20" y="46" width="64" height="5" rx="2" fill="rgba(255,255,255,.35)"/>
    <rect x="12" y="76" width="48" height="18" rx="6" fill="rgba(255,255,255,.2)"/>
    <circle cx="128" cy="86" r="10" stroke="#fff" stroke-width="1.5" fill="none" opacity=".7"/>
  </g>

  <!-- birthday post -->
  <g transform="translate(188 290)">
    <rect width="148" height="108" rx="14" fill="rgba(245,133,41,.12)" stroke="rgba(245,133,41,.45)" stroke-width="1.5"/>
    <rect x="12" y="12" width="124" height="56" rx="8" fill="rgba(129,52,175,.35)"/>
    <circle cx="74" cy="36" r="14" fill="#fcd9b6"/>
    <path d="M60 34 Q74 22 88 34" fill="#2d1f1a"/>
    <ellipse cx="58" cy="28" rx="5" ry="7" fill="#F472B6" opacity=".8"/>
    <ellipse cx="90" cy="28" rx="5" ry="7" fill="#38BDF8" opacity=".8"/>
    <rect x="62" y="48" width="24" height="14" rx="4" fill="#fff" opacity=".85"/>
    <rect x="12" y="76" width="72" height="6" rx="3" fill="rgba(255,255,255,.55)"/>
    <rect x="12" y="86" width="56" height="5" rx="2" fill="rgba(255,255,255,.3)"/>
  </g>

  <!-- festival / hiring row -->
  <g transform="translate(24 418)">
    <rect width="100" height="88" rx="12" fill="rgba(56,189,248,.12)" stroke="rgba(56,189,248,.35)" stroke-width="1.5"/>
    <rect x="10" y="10" width="80" height="44" rx="6" fill="url(#neon)" opacity=".35"/>
    <rect x="16" y="18" width="48" height="6" rx="2" fill="rgba(255,255,255,.8)"/>
    <rect x="16" y="28" width="64" height="4" rx="2" fill="rgba(255,255,255,.4)"/>
    <rect x="10" y="60" width="56" height="5" rx="2" fill="rgba(255,255,255,.35)"/>
  </g>
  <g transform="translate(130 418)">
    <rect width="100" height="88" rx="12" fill="rgba(124,108,255,.14)" stroke="rgba(124,108,255,.35)" stroke-width="1.5"/>
    <rect x="10" y="10" width="80" height="44" rx="6" fill="rgba(16,185,129,.25)"/>
    <rect x="16" y="18" width="52" height="6" rx="2" fill="rgba(255,255,255,.8)"/>
    <rect x="16" y="28" width="68" height="4" rx="2" fill="rgba(255,255,255,.4)"/>
    <rect x="10" y="60" width="60" height="5" rx="2" fill="rgba(255,255,255,.35)"/>
  </g>
  <g transform="translate(236 418)">
    <rect width="100" height="88" rx="12" fill="rgba(221,42,123,.12)" stroke="rgba(221,42,123,.35)" stroke-width="1.5"/>
    <rect x="10" y="10" width="80" height="44" rx="6" fill="rgba(245,133,41,.3)"/>
    <rect x="16" y="18" width="44" height="6" rx="2" fill="rgba(255,255,255,.8)"/>
    <rect x="16" y="28" width="60" height="4" rx="2" fill="rgba(255,255,255,.4)"/>
    <rect x="10" y="60" width="52" height="5" rx="2" fill="rgba(255,255,255,.35)"/>
  </g>

  <!-- autopilot flow lines -->
  <path d="M180 240 Q180 270 98 290" stroke="url(#neon)" stroke-width="1.5" opacity=".45" stroke-dasharray="4 4"/>
  <path d="M180 240 Q180 270 262 290" stroke="url(#neon)" stroke-width="1.5" opacity=".45" stroke-dasharray="4 4"/>
  <path d="M180 240 Q180 360 180 418" stroke="url(#ig)" stroke-width="1.5" opacity=".35" stroke-dasharray="4 4"/>

  <!-- bottom instagram phone -->
  <rect x="118" y="528" width="124" height="88" rx="16" fill="#0b0b14" stroke="url(#ig)" stroke-width="2"/>
  <rect x="128" y="540" width="104" height="56" rx="6" fill="#151228"/>
  <rect x="136" y="548" width="88" height="32" rx="4" fill="url(#ig)" opacity=".7"/>
  <rect x="144" y="556" width="48" height="5" rx="2" fill="rgba(255,255,255,.85)"/>
  <rect x="144" y="564" width="64" height="4" rx="2" fill="rgba(255,255,255,.45)"/>
  <circle cx="148" cy="592" r="4" stroke="#fff" stroke-width="1.2" fill="none"/>
  <rect x="160" y="588" width="20" height="8" rx="2" fill="rgba(255,255,255,.15)"/>
  <rect x="188" y="588" width="32" height="8" rx="4" fill="url(#ig)" opacity=".8"/>
</svg>
